<svg width="32" height="32" viewBox="0 0 32 32" fill="none" xmlns="http://www.w3.org/2000/svg">
<g clip-path="url(#clip0_2005_11)">
<path d="M28 0H4C1.79086 0 0 1.79086 0 4V28C0 30.2091 1.79086 32 4 32H28C30.2091 32 32 30.2091 32 28V4C32 1.79086 30.2091 0 28 0Z" fill="#F7DF1E"/>
<path d="M22.2354 24.9755C22.7402 25.7997 23.3969 26.4055 24.5584 26.4055C25.5341 26.4055 26.1574 25.9178 26.1574 25.244C26.1574 24.4365 25.517 24.1505 24.443 23.6808L23.8543 23.4282C22.155 22.7042 21.0262 21.7973 21.0262 19.8801C21.0262 18.114 22.3718 16.7695 24.4748 16.7695C25.972 16.7695 27.0484 17.2906 27.8241 18.655L25.9903 19.8324C25.5866 19.1084 25.151 18.8232 24.4748 18.8232C23.7851 18.8232 23.348 19.2608 23.348 19.8324C23.348 20.5388 23.7855 20.8248 24.7958 21.2623L25.3845 21.5145C27.3853 22.3725 28.515 23.2472 28.515 25.2138C28.515 27.3339 26.8495 28.4954 24.6129 28.4954C22.4259 28.4954 21.0131 27.4532 20.3217 26.0873L22.2354 24.9755ZM13.9168 25.1796C14.2868 25.8359 14.6233 26.3908 15.4323 26.3908C16.206 26.3908 16.6941 26.0881 16.6941 24.9111V16.904H19.0489V24.9429C19.0489 27.3812 17.6193 28.491 15.5326 28.491C13.6472 28.491 12.5553 27.5153 12 26.3401L13.9168 25.1796Z" fill="black"/>
</g>
<defs>
<clipPath id="clip0_2005_11">
<rect width="32" height="32" fill="white"/>
</clipPath>
</defs>
</svg>
